<?xml version="1.0" encoding="utf-8"?>
<!-- Generator: Adobe Illustrator 24.1.2, SVG Export Plug-In . SVG Version: 6.00 Build 0)  -->
<svg version="1.1" id="Layer_1" xmlns="http://www.w3.org/2000/svg" xmlns:xlink="http://www.w3.org/1999/xlink" x="0px" y="0px"
	 viewBox="0 0 381.83 92.57" style="enable-background:new 0 0 381.83 92.57;" xml:space="preserve">
<style type="text/css">
	.st0{fill:#FFFFFF;}
	.st1{fill:#4D4D4E;}
	.st2{fill:#1AAD4B;}
	.st3{fill:#565656;}
</style>
<rect y="0.29" class="st0" width="358.11" height="64.28"/>
<g>
	<g>
		<path class="st1" d="M247.23,67.41c-0.46-1.06-0.85-2.18-1.18-3.36c-0.33-1.18-0.57-2.38-0.71-3.61c-1.29,2.27-2.99,4.15-5.1,5.64
			c-2.11,1.49-4.63,2.24-7.55,2.24c-4.88,0-8.63-1.25-11.27-3.77c-2.64-2.51-3.96-5.93-3.96-10.26c0-4.56,1.76-8.1,5.27-10.61
			c3.51-2.51,8.64-3.76,15.38-3.76h7.01v-3.7c0-2.24-0.59-3.97-1.76-5.21c-1.18-1.23-2.91-1.85-5.21-1.85
			c-2.04,0-3.61,0.5-4.71,1.49c-1.1,0.99-1.66,2.36-1.66,4.11l-12.13-0.04l-0.04-0.26c-0.2-3.93,1.51-7.32,5.12-10.18
			c3.62-2.85,8.36-4.28,14.24-4.28c5.56,0,10.08,1.41,13.55,4.24c3.47,2.82,5.21,6.85,5.21,12.07v19.23c0,2.18,0.16,4.23,0.49,6.15
			c0.33,1.92,0.85,3.83,1.57,5.72H247.23z M235.74,59.02c2.21,0,4.17-0.55,5.89-1.64c1.72-1.09,2.88-2.35,3.49-3.79v-6.58h-7.01
			c-2.67,0-4.69,0.67-6.07,2c-1.38,1.33-2.06,2.95-2.06,4.84c0,1.55,0.51,2.8,1.55,3.74C232.56,58.54,233.96,59.02,235.74,59.02z"/>
		<path class="st1" d="M309.23,45.42c0,6.94-1.55,12.49-4.65,16.65c-3.1,4.16-7.57,6.24-13.42,6.24c-2.7,0-5.05-0.57-7.08-1.7
			c-2.02-1.13-3.74-2.79-5.14-4.97l-0.95,5.77h-10.76V0.29h12.52V25.8c1.35-1.87,2.96-3.3,4.84-4.3c1.88-1,4.04-1.51,6.47-1.51
			c5.91,0,10.41,2.23,13.51,6.69c3.1,4.46,4.65,10.41,4.65,17.84V45.42z M296.71,44.52c0-4.56-0.67-8.17-2-10.84
			c-1.33-2.67-3.61-4-6.82-4c-1.95,0-3.6,0.41-4.95,1.23c-1.35,0.82-2.41,2-3.19,3.53v19.82c0.78,1.41,1.84,2.5,3.21,3.25
			c1.36,0.75,3.03,1.13,5.01,1.13c3.24,0,5.51-1.15,6.8-3.44c1.29-2.29,1.94-5.55,1.94-9.76V44.52z"/>
		<path class="st1" d="M330.18,67.41h-12.56V0.29h12.56V67.41z"/>
		<path class="st1" d="M361.11,68.31c-6.71,0-12.08-2.15-16.09-6.45c-4.02-4.3-6.02-9.77-6.02-16.39v-1.72
			c0-6.91,1.9-12.61,5.7-17.08c3.8-4.47,8.9-6.7,15.29-6.67c6.28,0,11.16,1.9,14.63,5.68c3.47,3.79,5.21,8.91,5.21,15.36v6.84
			h-27.79l-0.08,0.26c0.23,3.06,1.25,5.57,3.08,7.54c1.82,1.97,4.3,2.96,7.42,2.96c2.78,0,5.09-0.28,6.92-0.84
			c1.83-0.56,3.84-1.44,6.02-2.65l3.4,7.76c-1.89,1.56-4.37,2.84-7.44,3.87C368.28,67.8,364.87,68.31,361.11,68.31z M360,29.67
			c-2.32,0-4.16,0.89-5.51,2.67c-1.35,1.78-2.18,4.12-2.5,7.01l0.13,0.22h15.4v-1.12c0-2.67-0.63-4.8-1.87-6.39
			C364.41,30.47,362.52,29.67,360,29.67z"/>
		<g>
			<path class="st1" d="M366.46,2.08h-3.28v9.82h-2.33V2.08h-3.27V0.29h8.88V2.08z"/>
			<path class="st1" d="M370.8,0.29l2.96,8.56h0.05l2.98-8.56h3.05V11.9h-2.33V8.44l0.22-5.13l-0.05-0.01l-3.11,8.6H373l-3.09-8.57
				l-0.05,0.01l0.22,5.1v3.46h-2.33V0.29H370.8z"/>
		</g>
	</g>
	<g>
		<rect x="41" y="0.74" class="st2" width="12.56" height="12.8"/>
		<polygon class="st2" points="41,55.3 12.56,55.3 12.56,0.29 0,0.29 0,67.86 41,67.86 53.57,67.86 53.57,55.3 53.57,21.31 
			41,21.31 		"/>
		<path class="st2" d="M104.25,55.16c0.01,0.01,0.02,0.01,0.02,0.02c-0.01-0.14-0.02-0.28-0.02-0.43V55.16z"/>
		<path class="st2" d="M139.74,42.39l14.89-21.08h-14.54l-10.8,17.51h-3.06v-1.68h-0.04V0.74h-12.56V38.7v16.05
			c0,0.14-0.01,0.28-0.02,0.42c-0.21,2.5-2.22,4.47-4.67,4.47c-2.45,0-4.46-1.96-4.67-4.46c-0.01-0.01-0.02-0.01-0.02-0.02v-0.41
			V38.78c0-6.31-1.32-10.94-3.96-13.9c-2.64-2.95-6.31-4.43-11.01-4.43c-2.81,0-5.35,0.66-7.62,1.98c-2.27,1.32-4.17,3.17-5.72,5.55
			l-0.56-6.67h-11.7v46.55h12.56V34.01c0.89-1.24,1.99-2.19,3.31-2.87c1.32-0.68,2.81-1.01,4.48-1.01c2.55,0,4.46,0.65,5.72,1.96
			c1.26,1.31,1.89,3.53,1.89,6.66v15.82c0,6.06,4.11,11.16,9.7,12.74h-0.03c0,0,8.47,2.58,15.26,0h-0.05
			c5.37-1.52,9.37-6.3,9.67-12.05c0.01-0.23,0.04-0.46,0.04-0.7v-6.21h3.4l12.87,19.49h14.41L139.74,42.39z"/>
	</g>
	<path class="st1" d="M183.81,33.35c-1.92-0.96-4.13-1.51-6.47-1.51h-14.06c-7.44,0-13.49,5.53-13.49,12.32
		c0,6.79,6.05,12.32,13.49,12.32h12.22c-1.24-0.8-3.28-2.7-5.4-7.04h-6.82c-3.5,0-6.45-2.42-6.45-5.28c0-2.86,2.95-5.28,6.45-5.28
		h14.06c3.13,0,5.82,1.94,6.36,4.39c0.01,0.17,0.04,0.33,0.08,0.5c0.37,1.73,1.79,3.03,3.48,3.03c1.82,0,3.33-1.5,3.55-3.44
		C190.49,39.04,187.75,35.32,183.81,33.35z"/>
	<path class="st2" d="M179.54,54.96c1.92,0.96,4.12,1.51,6.47,1.51h14.06c7.44,0,13.49-5.53,13.49-12.32
		c0-6.79-6.05-12.32-13.49-12.32h-12.21c1.23,0.8,3.28,2.7,5.4,7.03h6.81c3.5,0,6.45,2.42,6.45,5.28s-2.96,5.28-6.45,5.28H186
		c-3.13,0-5.82-1.93-6.36-4.39c-0.02-0.17-0.04-0.33-0.08-0.5c-0.37-1.73-1.79-3.03-3.48-3.03c-1.82,0-3.33,1.5-3.55,3.44
		C172.85,49.27,175.6,52.99,179.54,54.96z"/>
</g>
<g>
	<path class="st3" d="M272.85,87.6h-7.74l-1.74,4.84h-2.51l7.06-18.48h2.13l7.07,18.48h-2.5L272.85,87.6z M265.84,85.61h6.28
		l-3.15-8.65L265.84,85.61z"/>
	<path class="st3" d="M293.06,86.57c-0.23,1.96-0.95,3.46-2.16,4.53c-1.21,1.06-2.83,1.59-4.84,1.59c-2.18,0-3.93-0.78-5.25-2.35
		c-1.32-1.57-1.97-3.66-1.97-6.28v-1.78c0-1.72,0.31-3.23,0.92-4.53c0.61-1.3,1.48-2.3,2.61-3c1.13-0.7,2.43-1.05,3.91-1.05
		c1.96,0,3.54,0.55,4.72,1.64c1.19,1.1,1.88,2.61,2.07,4.55h-2.45c-0.21-1.48-0.67-2.55-1.38-3.21c-0.71-0.66-1.7-0.99-2.96-0.99
		c-1.56,0-2.78,0.58-3.66,1.73c-0.88,1.15-1.33,2.79-1.33,4.92v1.79c0,2.01,0.42,3.6,1.26,4.79c0.84,1.19,2.01,1.78,3.52,1.78
		c1.35,0,2.39-0.31,3.12-0.92c0.72-0.61,1.2-1.68,1.44-3.21H293.06z"/>
	<path class="st3" d="M306.59,87.6h-7.74l-1.74,4.84h-2.51l7.06-18.48h2.13l7.07,18.48h-2.5L306.59,87.6z M299.59,85.61h6.28
		l-3.15-8.65L299.59,85.61z"/>
	<path class="st3" d="M313.35,92.44V73.95h5.22c1.61,0,3.03,0.36,4.27,1.07c1.24,0.71,2.19,1.72,2.86,3.03s1.01,2.82,1.02,4.52v1.18
		c0,1.74-0.34,3.27-1.01,4.58s-1.63,2.32-2.88,3.02c-1.25,0.7-2.7,1.06-4.36,1.08H313.35z M315.79,75.95v14.5h2.56
		c1.88,0,3.34-0.58,4.39-1.75c1.04-1.17,1.57-2.83,1.57-4.99v-1.08c0-2.1-0.49-3.73-1.48-4.9c-0.99-1.17-2.38-1.76-4.2-1.77H315.79z
		"/>
	<path class="st3" d="M340.85,83.89h-8.01v6.55h9.31v1.99H330.4V73.95h11.62v1.99h-9.18v5.95h8.01V83.89z"/>
	<path class="st3" d="M348.32,73.95l6.04,15.08l6.04-15.08h3.16v18.48h-2.44v-7.2l0.23-7.77l-6.07,14.97h-1.87l-6.06-14.93
		l0.24,7.73v7.2h-2.44V73.95H348.32z"/>
	<path class="st3" d="M373.16,83.23l4.82-9.28h2.77l-6.37,11.59v6.89h-2.44v-6.89l-6.37-11.59h2.79L373.16,83.23z"/>
</g>
</svg>
