<svg width="56" height="47" viewBox="0 0 56 47" fill="none" xmlns="http://www.w3.org/2000/svg">
<path fill-rule="evenodd" clip-rule="evenodd" d="M52 4.77161V4C52 1.79086 50.2091 0 48 0H42.5L41.1358 0.434067C35.2503 2.30671 30.9682 7.39952 30.1338 13.5191L30 14.5V26V28.5V42C30 44.7614 32.2386 47 35 47H51C53.7614 47 56 44.7614 56 42V26C56 23.2386 53.7614 21 51 21H42.1429L41.4396 20.5525C39.9202 19.5856 39 17.9093 39 16.1083C39 14.7381 39.4341 13.4031 40.24 12.2949L41.3084 10.826C42.363 9.37589 44.0814 8.56008 45.8716 8.65953L47.7781 8.76545C50.0709 8.89283 52 7.06795 52 4.77161Z" fill="black" fill-opacity="0.25"/>
<path fill-rule="evenodd" clip-rule="evenodd" d="M22 4.77161V4C22 1.79086 20.2091 0 18 0H12.5L11.1358 0.434067C5.25035 2.30671 0.968247 7.39952 0.133764 13.5191L0 14.5V26V28.5V42C0 44.7614 2.23858 47 5 47H21C23.7614 47 26 44.7614 26 42V26C26 23.2386 23.7614 21 21 21H12.1429L11.4396 20.5525C9.92015 19.5856 9 17.9093 9 16.1083C9 14.7381 9.43412 13.4031 10.24 12.2949L11.3084 10.826C12.363 9.37589 14.0814 8.56008 15.8716 8.65953L17.7781 8.76545C20.0709 8.89283 22 7.06795 22 4.77161Z" fill="black" fill-opacity="0.25"/>
</svg>
