<svg id="arrows" xmlns="http://www.w3.org/2000/svg" viewBox="0 0 56.33 116.16"><defs><style>.cls-1{fill:#4d4d4e;}</style></defs><title>watch-video-arrow</title><path class="cls-1" d="M56.31,113.68c.3,1.65-2.6,2.79-4.69,2.41A265.58,265.58,0,0,1,6.68,103.81c-4.24-1.57-.51-5.67,3.74-4.31a65.24,65.24,0,0,0,29,2.26C-4.8,77-13.58,32.44,22.09,1.05c2.86-2.52,9.3,0,6.4,2.52C-5.36,33.37,2.42,76.21,46.28,99.1q-1.22-6.69-2.41-13.39c-.58-3.19,6.84-3.15,7.41,0Q53.8,99.69,56.31,113.68Zm-21-6.41q6.38,1.64,12.92,3c-.29-1.6-.57-3.19-.86-4.79A76.38,76.38,0,0,1,35.36,107.27Z"/></svg>